<!-- Generated by IcoMoon.io -->
<svg version="1.1" xmlns="http://www.w3.org/2000/svg" width="24" height="24" viewBox="0 0 24 24">
<title>calendar</title>
<path d="M21.36 5.581h-4.32v1.44h2.88v11.351h-15.84v-11.351h4.32v1.331h1.44v-4.103h-1.44v1.331h-5.76v14.231h18.72z"></path>
<path d="M14.16 8.291h1.44v-4.103h-1.44v1.392h-2.88v1.44h2.88z"></path>
<path d="M5.52 9.731h1.44v1.44h-1.44v-1.44z"></path>
<path d="M5.52 12.611h1.44v1.44h-1.44v-1.44z"></path>
<path d="M5.52 15.491h1.44v1.44h-1.44v-1.44z"></path>
<path d="M8.4 9.731h1.44v1.44h-1.44v-1.44z"></path>
<path d="M8.4 12.611h1.44v1.44h-1.44v-1.44z"></path>
<path d="M8.4 15.491h1.44v1.44h-1.44v-1.44z"></path>
<path d="M11.28 9.731h1.44v1.44h-1.44v-1.44z"></path>
<path d="M11.28 12.611h1.44v1.44h-1.44v-1.44z"></path>
<path d="M11.28 15.491h1.44v1.44h-1.44v-1.44z"></path>
<path d="M14.16 9.731h1.44v1.44h-1.44v-1.44z"></path>
<path d="M14.16 12.611h1.44v1.44h-1.44v-1.44z"></path>
<path d="M14.16 15.491h1.44v1.44h-1.44v-1.44z"></path>
<path d="M17.040 9.731h1.44v1.44h-1.44v-1.44z"></path>
<path d="M17.040 12.611h1.44v1.44h-1.44v-1.44z"></path>
<path d="M17.040 15.491h1.44v1.44h-1.44v-1.44z"></path>
</svg>
