<!-- Generated by IcoMoon.io -->
<svg version="1.1" xmlns="http://www.w3.org/2000/svg" width="32" height="32" viewBox="0 0 32 32">
<title>date</title>
<path d="M28.48 7.441h-5.76v1.92h3.84v15.134h-21.12v-15.134h5.76v1.775h1.92v-5.47h-1.92v1.775h-7.68v18.974h24.96z"></path>
<path d="M18.88 11.055h1.92v-5.47h-1.92v1.856h-3.84v1.92h3.84z"></path>
<path d="M7.36 12.975h1.92v1.92h-1.92v-1.92z"></path>
<path d="M7.36 16.815h1.92v1.92h-1.92v-1.92z"></path>
<path d="M7.36 20.655h1.92v1.92h-1.92v-1.92z"></path>
<path d="M11.2 12.975h1.92v1.92h-1.92v-1.92z"></path>
<path d="M11.2 16.815h1.92v1.92h-1.92v-1.92z"></path>
<path d="M11.2 20.655h1.92v1.92h-1.92v-1.92z"></path>
<path d="M15.040 12.975h1.92v1.92h-1.92v-1.92z"></path>
<path d="M15.040 16.815h1.92v1.92h-1.92v-1.92z"></path>
<path d="M15.040 20.655h1.92v1.92h-1.92v-1.92z"></path>
<path d="M18.88 12.975h1.92v1.92h-1.92v-1.92z"></path>
<path d="M18.88 16.815h1.92v1.92h-1.92v-1.92z"></path>
<path d="M18.88 20.655h1.92v1.92h-1.92v-1.92z"></path>
<path d="M22.72 12.975h1.92v1.92h-1.92v-1.92z"></path>
<path d="M22.72 16.815h1.92v1.92h-1.92v-1.92z"></path>
<path d="M22.72 20.655h1.92v1.92h-1.92v-1.92z"></path>
</svg>
