<!-- Generated by IcoMoon.io -->
<svg version="1.1" xmlns="http://www.w3.org/2000/svg" width="24" height="24" viewBox="0 0 24 24">
<title>explore</title>
<path d="M12 2.868l-9.904 6.252 2.281 1.44-2.281 1.44 2.281 1.44-2.281 1.44 9.904 6.252 9.904-6.252-2.281-1.44 2.281-1.44-2.281-1.44 2.281-1.44-9.904-6.252zM12 19.429l-7.206-4.549 0.932-0.588 6.274 3.961 6.274-3.961 0.932 0.588-7.206 4.549zM12 16.549l-7.206-4.549 0.932-0.588 6.274 3.961 6.274-3.961 0.932 0.588-7.206 4.549zM12 13.669l-7.206-4.549 7.206-4.549 7.206 4.549-7.206 4.549z"></path>
</svg>
