<!-- Generated by IcoMoon.io -->
<svg version="1.1" xmlns="http://www.w3.org/2000/svg" width="32" height="32" viewBox="0 0 32 32">
<title>explore</title>
<path d="M16 3.824l-13.205 8.336 3.041 1.92-3.041 1.92 3.041 1.92-3.041 1.92 13.205 8.336 13.205-8.336-3.041-1.92 3.041-1.92-3.041-1.92 3.041-1.92-13.205-8.336zM16 25.906l-9.608-6.066 1.243-0.785 8.365 5.281 8.365-5.281 1.243 0.785-9.608 6.066zM16 22.066l-9.608-6.066 1.243-0.785 8.365 5.281 8.365-5.281 1.243 0.785-9.608 6.066zM16 18.226l-9.608-6.066 9.608-6.066 9.608 6.066-9.608 6.066z"></path>
</svg>
