<!-- Generated by IcoMoon.io -->
<svg version="1.1" xmlns="http://www.w3.org/2000/svg" width="32" height="32" viewBox="0 0 32 32">
<title>groups</title>
<path d="M14.958 11.295v-4.146l-3.59-2.073-3.59 2.073v4.146l3.59 2.073 3.59-2.073zM9.697 8.258l1.67-0.964 1.67 0.964v1.929l-1.67 0.964-1.67-0.964v-1.929z"></path>
<path d="M20.481 26.924v-5.299h-8.963v5.299h1.92v-3.379h5.123v3.379z"></path>
<path d="M18.83 14.712l-2.83-1.634-2.83 1.634v3.268l2.83 1.634 2.83-1.634v-3.268zM16.91 16.871l-0.91 0.525-0.91-0.525v-1.051l0.91-0.525 0.91 0.525v1.051z"></path>
<path d="M7.375 17.456h3.741v-1.92h-5.661v11.388h1.92z"></path>
<path d="M24.223 11.295v-4.146l-3.59-2.073-3.59 2.073v4.146l3.59 2.073 3.59-2.073zM18.962 8.258l1.67-0.964 1.67 0.964v1.929l-1.67 0.964-1.67-0.964v-1.929z"></path>
<path d="M20.884 17.456h3.741v9.468h1.92v-11.388h-5.661z"></path>
</svg>
