<!-- Generated by IcoMoon.io -->
<svg version="1.1" xmlns="http://www.w3.org/2000/svg" width="24" height="24" viewBox="0 0 24 24">
<title>liked</title>
<path d="M8.379 3.543v0.009c-3.339 0-6.034 2.821-6.034 6.254 0 2.090 1.161 4.097 2.883 5.893s4.033 3.404 6.494 4.684l0.278 0.144 0.278-0.144c2.46-1.279 4.743-2.87 6.452-4.658s2.864-3.794 2.925-5.902v-0.026c0-3.433-2.696-6.254-6.034-6.254-1.378 0-2.609 0.547-3.621 1.351-1.012-0.803-2.242-1.351-3.621-1.351zM8.379 4.759c1.23 0 2.352 0.49 3.21 1.289l0.41 0.384 0.41-0.384c0.858-0.799 1.98-1.289 3.21-1.289 2.656 0 4.819 2.235 4.825 5.035-0.052 1.683-1.007 3.442-2.588 5.096-1.517 1.588-3.603 3.046-5.858 4.25-2.257-1.205-4.369-2.679-5.9-4.276-1.597-1.665-2.548-3.425-2.548-5.058 0-2.806 2.167-5.047 4.827-5.047z"></path>
</svg>
