<!-- Generated by IcoMoon.io -->
<svg version="1.1" xmlns="http://www.w3.org/2000/svg" width="32" height="32" viewBox="0 0 32 32">
<title>liked</title>
<path d="M11.173 4.723v0.013c-4.452 0-8.046 3.761-8.046 8.338 0 2.787 1.548 5.462 3.844 7.857s5.378 4.539 8.659 6.245l0.371 0.192 0.371-0.192c3.28-1.706 6.324-3.826 8.602-6.21s3.818-5.058 3.9-7.87v-0.035c0-4.578-3.594-8.338-8.046-8.338-1.838 0-3.478 0.73-4.827 1.801-1.349-1.071-2.99-1.801-4.827-1.801zM11.173 6.345c1.641 0 3.136 0.653 4.281 1.719l0.547 0.512 0.547-0.512c1.144-1.066 2.64-1.719 4.281-1.719 3.542 0 6.425 2.98 6.433 6.713-0.069 2.243-1.343 4.589-3.451 6.795-2.023 2.118-4.804 4.062-7.81 5.667-3.009-1.607-5.825-3.572-7.867-5.701-2.129-2.221-3.397-4.566-3.397-6.745 0-3.741 2.89-6.729 6.437-6.729z"></path>
</svg>
