<!-- Generated by IcoMoon.io -->
<svg version="1.1" xmlns="http://www.w3.org/2000/svg" width="24" height="24" viewBox="0 0 24 24">
<title>map</title>
<path d="M15.418 8.034v-3.747l-3.418-1.974-3.418 1.974v3.747l3.418 5.194 3.418-5.194zM10.022 5.119l1.978-1.142 1.978 1.142v2.484l-1.978 3.006-1.978-3.006v-2.484z"></path>
<path d="M12.77 5.816l-0.77-0.444-0.77 0.444v0.889l0.77 0.444 0.77-0.444z"></path>
<path d="M15.553 18.827l-2.833 0.894v-5.085h-1.44v5.085l-2.833-0.894v-8.337l-5.713 1.804v9.392l4.993-1.577 4.273 1.349 4.273-1.349 4.993 1.577v-9.392l-5.713-1.804v8.337zM7.007 18.827l-2.833 0.895v-6.372l2.833-0.895v6.372zM16.993 12.455l2.833 0.895v6.372l-2.833-0.895v-6.372z"></path>
</svg>
