<!-- Generated by IcoMoon.io -->
<svg version="1.1" xmlns="http://www.w3.org/2000/svg" width="32" height="32" viewBox="0 0 32 32">
<title>map</title>
<path d="M20.558 10.713v-4.996l-4.558-2.631-4.558 2.631v4.996l4.558 6.925 4.558-6.925zM13.362 6.825l2.638-1.523 2.638 1.523v3.313l-2.638 4.008-2.638-4.008v-3.313z"></path>
<path d="M17.027 7.755l-1.027-0.593-1.027 0.593v1.186l1.027 0.593 1.027-0.593z"></path>
<path d="M20.737 25.102l-3.777 1.193v-6.78h-1.92v6.78l-3.777-1.193v-11.116l-7.617 2.405v12.523l6.657-2.102 5.697 1.799 5.697-1.799 6.657 2.102v-12.523l-7.617-2.405v11.116zM9.343 25.102l-3.777 1.193v-8.496l3.777-1.193v8.496zM22.657 16.606l3.777 1.193v8.496l-3.777-1.193v-8.496z"></path>
</svg>
