<!-- Generated by IcoMoon.io -->
<svg version="1.1" xmlns="http://www.w3.org/2000/svg" width="24" height="24" viewBox="0 0 24 24">
<title>network</title>
<path d="M6.006 16.271l-1.074 0.62v2.064l1.787 1.032 1.787-1.032v-2.064l-1.061-0.612v-3.519l3.834-3.136v8.736l-1.067 0.616v2.064l1.787 1.032 1.787-1.032v-2.064l-1.067-0.616v-2.123l2.575-2.106 1.259 1.030v1.119l-1.061 0.612v2.064l1.787 1.032 1.787-1.032v-2.064l-1.074-0.62v-1.794l-1.561-1.277 1.561-1.277v-4.194l1.074-0.62v-2.064l-1.787-1.032-1.787 1.032v2.064l1.061 0.612v3.519l-3.834 3.136v-8.736l1.067-0.616v-2.064l-1.787-1.032-1.787 1.032v2.064l1.067 0.616v2.123l-2.575 2.106-1.259-1.030v-1.119l1.061-0.612v-2.064l-1.787-1.032-1.787 1.032v2.064l1.074 0.62v1.794l1.561 1.278-1.561 1.277v4.194zM17.627 18.123l-0.347 0.201-0.347-0.2v-0.401l0.347-0.201 0.347 0.2v0.401zM16.933 5.877l0.347-0.201 0.347 0.2v0.401l-0.347 0.201-0.347-0.2v-0.401zM12.347 20.208l-0.347 0.2-0.347-0.2v-0.401l0.347-0.201 0.347 0.2v0.401zM11.653 3.792l0.347-0.2 0.347 0.2v0.401l-0.347 0.201-0.347-0.2v-0.401zM6.373 5.877l0.347-0.201 0.347 0.2v0.401l-0.347 0.201-0.347-0.2v-0.401zM7.067 18.123l-0.347 0.201-0.347-0.2v-0.401l0.347-0.201 0.347 0.2v0.401z"></path>
</svg>
