<!-- Generated by IcoMoon.io -->
<svg version="1.1" xmlns="http://www.w3.org/2000/svg" width="32" height="32" viewBox="0 0 32 32">
<title>network</title>
<path d="M8.008 21.695l-1.432 0.827v2.752l2.383 1.376 2.383-1.376v-2.752l-1.415-0.817v-4.692l5.112-4.181v11.647l-1.423 0.822v2.752l2.383 1.376 2.383-1.376v-2.752l-1.423-0.822v-2.831l3.433-2.808 1.678 1.373v1.492l-1.415 0.817v2.752l2.383 1.376 2.383-1.376v-2.752l-1.432-0.827v-2.392l-2.082-1.703 2.082-1.703v-5.592l1.432-0.827v-2.752l-2.383-1.376-2.383 1.376v2.752l1.415 0.817v4.692l-5.112 4.181v-11.647l1.423-0.822v-2.752l-2.383-1.376-2.383 1.376v2.752l1.423 0.822v2.831l-3.433 2.808-1.678-1.373v-1.492l1.415-0.817v-2.752l-2.383-1.376-2.383 1.376v2.752l1.432 0.827v2.392l2.082 1.703-2.082 1.703v5.592zM23.503 24.164l-0.463 0.268-0.463-0.267v-0.535l0.463-0.268 0.463 0.267v0.535zM22.577 7.836l0.463-0.268 0.463 0.267v0.535l-0.463 0.268-0.463-0.267v-0.535zM16.463 26.944l-0.463 0.267-0.463-0.267v-0.535l0.463-0.268 0.463 0.267v0.535zM15.537 5.056l0.463-0.267 0.463 0.267v0.535l-0.463 0.268-0.463-0.267v-0.535zM8.497 7.836l0.463-0.268 0.463 0.267v0.535l-0.463 0.268-0.463-0.267v-0.535zM9.423 24.164l-0.463 0.268-0.463-0.267v-0.535l0.463-0.268 0.463 0.267v0.535z"></path>
</svg>
