<!-- Generated by IcoMoon.io -->
<svg version="1.1" xmlns="http://www.w3.org/2000/svg" width="24" height="24" viewBox="0 0 24 24">
<title>search</title>
<path d="M15.305 14.009l4.897 4.897-1.296 1.296-4.897-4.897c-1.071 0.802-2.401 1.277-3.842 1.277-3.543 0-6.415-2.872-6.415-6.415s2.872-6.415 6.415-6.415c3.543 0 6.415 2.872 6.415 6.415 0 1.441-0.475 2.771-1.277 3.842zM10.167 14.749c2.531 0 4.582-2.052 4.582-4.582s-2.052-4.582-4.582-4.582c-2.531 0-4.582 2.052-4.582 4.582s2.052 4.582 4.582 4.582z"></path>
</svg>
