<!-- Generated by IcoMoon.io -->
<svg version="1.1" xmlns="http://www.w3.org/2000/svg" width="32" height="32" viewBox="0 0 32 32">
<title>search</title>
<path d="M20.407 18.679l6.529 6.529-1.728 1.728-6.529-6.529c-1.428 1.069-3.201 1.703-5.122 1.703-4.724 0-8.553-3.829-8.553-8.553s3.829-8.553 8.553-8.553c4.724 0 8.553 3.829 8.553 8.553 0 1.921-0.633 3.695-1.703 5.122zM13.556 19.666c3.374 0 6.11-2.735 6.11-6.11s-2.735-6.11-6.11-6.11c-3.374 0-6.11 2.735-6.11 6.11s2.735 6.11 6.11 6.11z"></path>
</svg>
