<!-- Generated by IcoMoon.io -->
<svg version="1.1" xmlns="http://www.w3.org/2000/svg" width="32" height="32" viewBox="0 0 32 32">
<title>tag</title>
<path d="M16.454 5.548l-10.149 10.149c-1.3 1.3-1.3 3.408 0 4.708l5.075 5.075c0.65 0.65 1.502 0.975 2.354 0.975s1.704-0.325 2.354-0.975l10.149-10.149v-9.783h-9.782zM14.39 23.783c-0.236 0.236-0.512 0.272-0.656 0.272s-0.42-0.035-0.656-0.271l-5.075-5.075c-0.236-0.236-0.271-0.512-0.271-0.655s0.035-0.419 0.272-0.656l9.445-9.446h6.386v6.386l-9.445 9.445zM19.913 10.028c0.946 0 1.713 0.767 1.713 1.713s-0.767 1.713-1.713 1.713-1.713-0.767-1.713-1.713 0.767-1.713 1.713-1.713z"></path>
</svg>
