<!-- Generated by IcoMoon.io -->
<svg version="1.1" xmlns="http://www.w3.org/2000/svg" width="24" height="24" viewBox="0 0 24 24">
<title>tag</title>
<path d="M12.341 4.161l-7.612 7.612c-0.975 0.975-0.975 2.556 0 3.531l3.806 3.806c0.488 0.488 1.127 0.731 1.765 0.731s1.278-0.244 1.765-0.731l7.612-7.612v-7.337h-7.337zM10.793 17.837c-0.177 0.177-0.384 0.204-0.492 0.204s-0.315-0.026-0.492-0.203l-3.806-3.806c-0.177-0.177-0.204-0.384-0.204-0.492s0.026-0.315 0.204-0.492l7.084-7.084h4.79v4.79h0l-7.084 7.084zM14.934 7.521c0.71 0 1.285 0.575 1.285 1.285s-0.575 1.285-1.285 1.285-1.285-0.575-1.285-1.285 0.575-1.285 1.285-1.285z"></path>
</svg>
