<?xml version="1.0" standalone="no"?>
<!DOCTYPE svg PUBLIC "-//W3C//DTD SVG 20010904//EN"
 "http://www.w3.org/TR/2001/REC-SVG-20010904/DTD/svg10.dtd">
<svg version="1.0" xmlns="http://www.w3.org/2000/svg"
 width="500.000000pt" height="500.000000pt" viewBox="0 0 500.000000 500.000000"
 preserveAspectRatio="xMidYMid meet">
<metadata>
Created by potrace 1.11, written by Peter Selinger 2001-2013
</metadata>
<g transform="translate(0.000000,500.000000) scale(0.100000,-0.100000)"
fill="#000000" stroke="none">
<path d="M1251 4714 c-103 -21 -185 -67 -267 -151 -51 -52 -110 -167 -124
-243 -17 -89 -12 -730 5 -788 8 -26 15 -49 15 -52 0 -3 -91 -5 -202 -5 -112 1
-218 -3 -236 -8 -45 -11 -99 -61 -108 -100 -26 -106 31 -193 134 -205 26 -3
49 -8 52 -13 3 -4 5 -213 5 -465 l0 -457 -41 -3 c-130 -7 -200 -138 -130 -244
43 -65 66 -70 310 -70 119 0 216 -1 216 -2 0 -2 -7 -28 -15 -58 -20 -75 -21
-720 -1 -795 49 -188 175 -316 361 -371 55 -16 146 -17 1200 -18 627 -1 1148
1 1158 3 15 3 -8 31 -103 126 l-122 122 -46 -13 c-114 -32 -209 -43 -362 -40
-85 2 -164 6 -175 9 -11 3 -51 12 -90 21 -38 9 -108 33 -154 53 l-85 36 -570
1 -571 1 -43 25 c-27 15 -54 42 -69 68 l-26 44 0 321 c0 266 3 328 15 357 20
46 45 73 88 96 31 16 62 18 303 19 147 1 269 4 271 6 3 3 15 169 19 278 l2 34
-510 1 -510 1 -2 153 -2 152 32 0 c18 0 252 0 522 0 473 1 491 1 532 21 115
56 115 228 -1 279 -37 17 -80 19 -550 19 -281 0 -516 0 -523 1 -9 0 -12 39
-11 153 l0 153 1202 -1 c1155 0 1202 -1 1239 -19 36 -18 87 -72 87 -92 0 -6
37 -27 83 -47 45 -21 119 -64 165 -97 l83 -60 -2 98 c-1 53 -8 120 -15 147 -7
28 -13 55 -14 60 0 7 77 11 220 11 l220 1 40 27 c131 86 77 282 -80 288 -29 1
-40 6 -41 17 -4 45 -5 888 -1 899 2 6 20 12 39 12 163 0 215 211 72 295 -34
20 -55 20 -1433 20 -1013 0 -1414 -3 -1455 -11z m2459 -459 l0 -155 -527 0
c-528 0 -528 0 -567 -23 -103 -58 -107 -200 -9 -267 l37 -25 510 -2 c281 -1
521 -2 534 -2 l23 -1 -3 -152 -3 -153 -1185 0 c-1278 -1 -1235 -3 -1294 52
-57 52 -59 68 -59 420 l0 321 26 45 c28 48 64 76 112 88 16 4 564 7 1218 8
l1187 1 0 -155z"/>
<path d="M2848 2975 c-2 -2 -21 -6 -43 -8 -86 -10 -220 -54 -304 -100 -273
-149 -445 -377 -512 -682 -21 -99 -17 -314 9 -419 83 -336 328 -597 660 -705
104 -34 167 -44 287 -45 174 -1 310 30 457 105 l41 21 411 -409 c226 -226 423
-417 437 -426 89 -54 231 -33 309 46 73 75 94 200 48 291 -17 33 -148 171
-431 455 l-408 408 33 69 c119 245 124 541 14 802 -29 70 -87 174 -106 192 -3
3 -18 22 -33 43 -54 72 -178 181 -256 225 -72 41 -92 51 -157 75 -106 41 -206
59 -336 62 -64 2 -118 1 -120 0z m281 -291 c136 -34 249 -102 345 -205 209
-226 248 -569 94 -835 -207 -359 -703 -459 -1034 -208 -301 229 -369 655 -154
970 43 61 142 155 204 193 165 99 364 130 545 85z"/>
</g>
</svg>
